<svg width="24" height="24" viewBox="0 0 24 24" fill="none" xmlns="http://www.w3.org/2000/svg">
<path d="M12 2.25C13.2598 2.25 14.4676 2.7508 15.3584 3.6416C16.2492 4.5324 16.75 5.74022 16.75 7V9.25H17C17.7293 9.25 18.4286 9.53994 18.9443 10.0557C19.4601 10.5714 19.75 11.2707 19.75 12V19C19.75 19.7293 19.4601 20.4286 18.9443 20.9443C18.4286 21.4601 17.7293 21.75 17 21.75H7C6.27065 21.75 5.57139 21.4601 5.05566 20.9443C4.53994 20.4286 4.25 19.7293 4.25 19V12C4.25 11.2707 4.53994 10.5714 5.05566 10.0557C5.57139 9.53994 6.27065 9.25 7 9.25H7.25V7C7.25 5.74022 7.7508 4.5324 8.6416 3.6416C9.5324 2.7508 10.7402 2.25 12 2.25ZM7 10.75C6.66848 10.75 6.35063 10.8818 6.11621 11.1162C5.88179 11.3506 5.75 11.6685 5.75 12V19C5.75 19.3315 5.88179 19.6494 6.11621 19.8838C6.35063 20.1182 6.66848 20.25 7 20.25H17C17.3315 20.25 17.6494 20.1182 17.8838 19.8838C18.1182 19.6494 18.25 19.3315 18.25 19V12C18.25 11.6685 18.1182 11.3506 17.8838 11.1162C17.6494 10.8818 17.3315 10.75 17 10.75H7ZM12 3.75C11.138 3.75 10.3116 4.09266 9.70215 4.70215C9.09266 5.31164 8.75 6.13805 8.75 7V9.25H15.25V7C15.25 6.13805 14.9073 5.31164 14.2979 4.70215C13.6884 4.09266 12.862 3.75 12 3.75ZM11.25 15.4971L11.165 15.4219C10.9746 15.2548 10.8401 15.0331 10.7793 14.7871C10.7186 14.5412 10.7336 14.2824 10.8242 14.0459C10.9149 13.8094 11.0766 13.6062 11.2861 13.4639C11.4433 13.3572 11.6221 13.2881 11.8086 13.2617L11.9971 13.25H12.0029C12.2562 13.247 12.5043 13.3216 12.7139 13.4639C12.9234 13.6062 13.0851 13.8094 13.1758 14.0459C13.2664 14.2824 13.2814 14.5412 13.2207 14.7871C13.1599 15.0331 13.0254 15.2548 12.835 15.4219L12.75 15.4971V17C12.75 17.1989 12.6709 17.3896 12.5303 17.5303C12.3896 17.6709 12.1989 17.75 12 17.75C11.8011 17.75 11.6104 17.6709 11.4697 17.5303C11.3291 17.3896 11.25 17.1989 11.25 17V15.4971Z" fill="#16A34A" stroke="#16A34A" stroke-width="0.5"/>
</svg>
